HIERARCHY
ROOT Hips
{
	OFFSET 0.00000 0.00000 0.00000
	CHANNELS 6 Xposition Yposition Zposition Zrotation Yrotation Xrotation 
	JOINT LHipJoint
	{
		OFFSET 0 0 0
		CHANNELS 3 Zrotation Yrotation Xrotation
		JOINT LeftUpLeg
		{
			OFFSET 1.75344 -1.53157 0.77399
			CHANNELS 3 Zrotation Yrotation Xrotation
			JOINT LeftLeg
			{
				OFFSET 2.25415 -6.19323 0.00000
				CHANNELS 3 Zrotation Yrotation Xrotation
				JOINT LeftFoot
				{
					OFFSET 2.30342 -6.32861 0.00000
					CHANNELS 3 Zrotation Yrotation Xrotation
					JOINT LeftToeBase
					{
						OFFSET 0.10958 -0.30108 1.49206
						CHANNELS 3 Zrotation Yrotation Xrotation
						End Site
						{
							OFFSET 0.00000 -0.00000 0.77783
						}
					}
				}
			}
		}
	}
	JOINT RHipJoint
	{
		OFFSET 0 0 0
		CHANNELS 3 Zrotation Yrotation Xrotation
		JOINT RightUpLeg
		{
			OFFSET -1.81912 -1.53156 0.77399
			CHANNELS 3 Zrotation Yrotation Xrotation
			JOINT RightLeg
			{
				OFFSET -2.22882 -6.12365 0.00000
				CHANNELS 3 Zrotation Yrotation Xrotation
				JOINT RightFoot
				{
					OFFSET -2.21943 -6.09785 0.00000
					CHANNELS 3 Zrotation Yrotation Xrotation
					JOINT RightToeBase
					{
						OFFSET -0.18931 -0.52012 1.59379
						CHANNELS 3 Zrotation Yrotation Xrotation
						End Site
						{
							OFFSET -0.00000 -0.00000 0.84686
						}
					}
				}
			}
		}
	}
	JOINT LowerBack
	{
		OFFSET 0 0 0
		CHANNELS 3 Zrotation Yrotation Xrotation
		JOINT Spine
		{
			OFFSET -0.00200 1.66634 -0.14248
			CHANNELS 3 Zrotation Yrotation Xrotation
			JOINT Spine1
			{
				OFFSET -0.00875 1.64542 0.09514
				CHANNELS 3 Zrotation Yrotation Xrotation
				JOINT Neck
				{
					OFFSET 0 0 0
					CHANNELS 3 Zrotation Yrotation Xrotation
					JOINT Neck1
					{
						OFFSET 0.02257 1.59605 0.00839
						CHANNELS 3 Zrotation Yrotation Xrotation
						JOINT Head
						{
							OFFSET -0.10214 1.57530 -0.23335
							CHANNELS 3 Zrotation Yrotation Xrotation
							End Site
							{
								OFFSET -0.03588 1.60717 -0.08062
							}
						}
					}
				}
				JOINT LeftShoulder
				{
					OFFSET 0 0 0
					CHANNELS 3 Zrotation Yrotation Xrotation
					JOINT LeftArm
					{
						OFFSET 2.54983 1.10186 0.40078
						CHANNELS 3 Zrotation Yrotation Xrotation
						JOINT LeftForeArm
						{
							OFFSET 4.28840 -0.00000 0.00000
							CHANNELS 3 Zrotation Yrotation Xrotation
							JOINT LeftHand
							{
								OFFSET 3.06552 -0.00000 -0.00000
								CHANNELS 3 Zrotation Yrotation Xrotation
								JOINT LeftFingerBase
								{
									OFFSET 0 0 0
									CHANNELS 3 Zrotation Yrotation Xrotation
									JOINT LeftHandIndex1
									{
										OFFSET 0.75304 -0.00000 0.00000
										CHANNELS 3 Zrotation Yrotation Xrotation
										End Site
										{
											OFFSET 0.60712 -0.00000 0.00000
										}
									}
								}
								JOINT LThumb
								{
									OFFSET 0 0 0
									CHANNELS 3 Zrotation Yrotation Xrotation
									End Site
									{
										OFFSET 0.61639 -0.00000 0.61639
									}
								}
							}
						}
					}
				}
				JOINT RightShoulder
				{
					OFFSET 0 0 0
					CHANNELS 3 Zrotation Yrotation Xrotation
					JOINT RightArm
					{
						OFFSET -2.60909 1.35448 0.21802
						CHANNELS 3 Zrotation Yrotation Xrotation
						JOINT RightForeArm
						{
							OFFSET -4.52172 -0.00000 -0.00000
							CHANNELS 3 Zrotation Yrotation Xrotation
							JOINT RightHand
							{
								OFFSET -2.89140 -0.00000 0.00000
								CHANNELS 3 Zrotation Yrotation Xrotation
								JOINT RightFingerBase
								{
									OFFSET 0 0 0
									CHANNELS 3 Zrotation Yrotation Xrotation
									JOINT RightHandIndex1
									{
										OFFSET -0.68054 -0.00000 0.00000
										CHANNELS 3 Zrotation Yrotation Xrotation
										End Site
										{
											OFFSET -0.54867 -0.00000 0.00000
										}
									}
								}
								JOINT RThumb
								{
									OFFSET 0 0 0
									CHANNELS 3 Zrotation Yrotation Xrotation
									End Site
									{
										OFFSET -0.55705 -0.00000 0.55705
									}
								}
							}
						}
					}
				}
			}
		}
	}
}
MOTION
Frames: 15
Frame Time: .0083333
7.4337 15.044 42.2084 0 0 0 0 0 0 -21 0 0 0 0 0 0 0 0 0 0 0 0 0 0 21 0 0 0 0 0 0 0 0 0 0 0 0 0 0 0 0 0 0 0 0 0 0 -16 0 0 21 0 0 11 0 0 0 -8 0 0 0 0 0 0 0 0 0 0 0 0 0 0 0 0 0 0 0 0 8 0 0 0 0 0 0 0 0 0 0 0 0 0 0 0 0 0
7.4337 15.0440 42.2084 179.9580 -2.0315 177.0900 0.0000 0.0000 0.0000 -29.5877 -19.9801 2.2291 2.3698 9.5973 27.6822 2.1516 9.1794 -32.2254 1.1955 -6.9378 -19.5311 0.0000 0.0000 0.0000 19.5995 7.2720 -4.6122 -2.8099 -10.3807 30.2187 -1.7135 -14.5038 -33.5680 -2.7462 -10.2724 29.8635 3.1771 1.5931 1.0409 -3.7775 1.4806 -7.3743 -5.8769 0.1191 -8.1529 -4.3383 0.9829 -0.4332 -2.8781 0.0526 23.3915 -0.3169 -1.5012 7.2270 -0.0000 0.0000 0.0000 -74.8142 24.4091 39.8911 20.1935 -30.8747 -5.6303 -0.0000 -0.0000 19.2053 2.0585 -17.2374 -0.6102 -7.1250 0.0000 -0.0000 -16.9816 13.2509 13.2448 -0.0000 0.0000 0.0000 79.7144 -29.7684 63.9356 -26.5796 37.7753 -9.2404 0.0000 0.0000 3.4662 -10.5871 -62.3379 9.4000 7.1250 -0.0000 -0.0000 -165.3646 -3.4666 14.2029
7.4316 15.0402 42.2009 180.0330 -1.8388 177.0150 0.0000 0.0000 0.0000 -29.6124 -20.0731 2.4658 2.3474 9.5551 27.5476 2.1792 9.1819 -32.3899 1.0351 -6.4710 -18.1574 0.0000 0.0000 0.0000 19.6738 7.2395 -4.6421 -2.8394 -10.4304 30.3821 -1.6380 -14.7511 -33.3388 -1.6689 -8.1393 23.1381 2.8888 1.0783 1.0028 -3.3302 1.0845 -5.2868 -5.1599 0.1709 -5.9401 -5.1012 0.7049 -9.2995 -2.9551 0.9740 25.7569 -0.1752 -1.0845 9.6715 -0.0000 0.0000 0.0000 -77.2403 19.8888 35.4373 19.7439 -30.3326 -5.4014 -0.0000 -0.0000 19.9963 -3.1034 -19.6749 1.0458 -7.1250 0.0000 -0.0000 -20.0359 11.1286 16.8861 -0.0000 0.0000 0.0000 79.0244 -22.1091 65.6356 -24.9482 36.1510 -8.2593 0.0000 0.0000 1.1200 -10.7965 -62.1494 9.5705 7.1250 -0.0000 -0.0000 -165.4507 -3.2934 14.1612
7.4325 15.0412 42.1970 179.9690 -1.7525 177.0000 0.0000 0.0000 0.0000 -29.6797 -19.9913 2.5321 2.3330 9.5277 27.4603 2.1878 9.1791 -32.4384 1.0087 -6.3905 -17.9218 0.0000 0.0000 0.0000 19.6096 7.2665 -4.6228 -2.8511 -10.4501 30.4469 -1.6629 -14.7057 -33.4447 -0.8872 -6.0042 16.7965 2.7970 1.0277 0.9695 -3.3117 1.0119 -5.2826 -5.0830 0.1398 -5.9258 -4.9682 0.7834 -9.2666 -3.1186 1.0827 25.7778 -0.2442 -1.0469 9.6733 0.0000 -0.0000 0.0000 -77.1371 20.0659 35.1659 19.9724 -30.6091 -5.5173 -0.0000 -0.0000 19.5174 -7.1007 -21.7180 2.6392 -7.1250 0.0000 -0.0000 -22.2420 9.2920 19.9695 0.0000 -0.0000 0.0000 79.1495 -22.1651 64.9313 -24.9072 36.1090 -8.2352 0.0000 0.0000 1.5347 -9.5830 -61.6380 8.4504 7.1250 -0.0000 -0.0000 -165.1404 -2.7482 14.6380
7.4341 15.0432 42.1952 179.8560 -1.7233 176.9910 0.0000 0.0000 0.0000 -29.7574 -19.8003 2.5057 2.3262 9.5148 27.4194 2.1643 9.2093 -32.3192 1.0302 -6.4562 -18.1138 0.0000 0.0000 0.0000 19.4983 7.3185 -4.5849 -2.8535 -10.4540 30.4597 -1.6615 -14.6749 -33.4107 -0.0129 -0.7337 2.0162 2.6824 0.9604 0.9870 -3.3467 0.9127 -5.2703 -5.0493 0.0940 -5.9345 -5.1466 0.8397 -9.0094 -2.8430 1.1095 25.5834 -0.1118 -1.0097 9.5506 -0.0000 -0.0000 0.0000 -77.5507 20.2927 33.9975 20.0841 -30.7436 -5.5743 -0.0000 -0.0000 20.1185 -13.3145 -24.7153 5.6510 -7.1250 0.0000 -0.0000 -25.4157 6.4632 25.0685 -0.0000 -0.0000 0.0000 79.3515 -22.1364 64.2413 -24.8308 36.0305 -8.1901 0.0000 0.0000 1.7839 -8.0259 -61.3033 7.0507 7.1250 -0.0000 -0.0000 -164.6916 -2.3776 15.2205
7.4350 15.0446 42.1908 179.8900 -1.5739 176.9740 0.0000 0.0000 0.0000 -29.7260 -19.7275 2.5390 2.3265 9.5155 27.4215 2.1585 9.2774 -32.3283 1.1228 -6.7309 -18.9205 0.0000 0.0000 0.0000 19.5563 7.4360 -4.5153 -2.8448 -10.4394 30.4117 -1.6453 -14.6821 -33.3225 -0.0150 -0.7915 2.1752 2.7040 0.9398 0.9844 -3.3044 0.8909 -5.2597 -5.0154 0.0849 -5.9243 -5.1040 0.9578 -9.0889 -2.9141 1.2618 25.8285 -0.1328 -0.9682 9.6523 0.0000 0.0000 0.0000 -78.0939 20.4936 32.7747 20.1251 -30.7928 -5.5952 -0.0000 -0.0000 21.1454 -20.2164 -27.4266 9.6270 -7.1250 0.0000 -0.0000 -28.6201 3.5832 31.0229 0.0000 0.0000 0.0000 79.4439 -22.0649 63.6533 -24.6256 35.8188 -8.0698 0.0000 0.0000 2.2580 -6.6058 -60.9538 5.7810 7.1250 -0.0000 -0.0000 -15.7271 2.3562 -164.3231
7.4354 15.0442 42.1834 180.0670 -1.3830 176.9510 0.0000 0.0000 0.0000 -29.5473 -19.7038 2.5896 2.3315 9.5249 27.4514 2.1953 9.1976 -32.4945 1.3279 -7.2976 -20.6000 0.0000 0.0000 0.0000 19.7881 7.5330 -4.4245 -2.8292 -10.4133 30.3259 -1.6468 -14.6187 -33.2776 -0.0056 -0.4821 1.3248 2.8628 0.9624 0.9199 -3.2212 0.9387 -5.2311 -5.0185 0.1087 -5.8508 -5.0069 1.0595 -9.0516 -3.0373 1.3962 25.9020 -0.1799 -0.9217 9.6717 0.0000 -0.0000 0.0000 -78.6046 20.6900 31.7972 20.2598 -30.9541 -5.6644 -0.0000 -0.0000 22.0325 -20.9768 -27.3128 9.9775 -7.1250 0.0000 -0.0000 -29.0011 3.6191 31.5614 0.0000 -0.0000 0.0000 79.5238 -22.0811 62.9007 -24.5120 35.7010 -8.0034 0.0000 0.0000 2.9677 -4.2224 -60.4273 3.6740 7.1250 -0.0000 -0.0000 -16.4686 3.2907 -163.8094
7.4365 15.0412 42.1776 180.1630 -1.2394 176.9310 0.0000 0.0000 0.0000 -29.4507 -19.6846 2.6205 2.3345 9.5306 27.4697 2.2440 8.9642 -32.6335 1.1460 -6.7976 -19.1172 0.0000 0.0000 0.0000 19.9531 7.7088 -4.2983 -2.8162 -10.3913 30.2535 -1.6461 -14.6201 -33.2746 -0.0005 -0.1459 0.4008 2.9191 0.9615 0.8755 -3.1598 0.9476 -5.2016 -4.9847 0.1164 -5.7931 -5.1825 1.0940 -8.8282 -2.8640 1.4039 25.8292 -0.0886 -0.9159 9.5998 -0.0000 -0.0000 0.0000 -79.0173 20.8752 30.6837 20.4823 -31.2190 -5.7792 -0.0000 -0.0000 22.0386 -22.2109 -27.2887 10.6031 -7.1250 0.0000 -0.0000 -29.5916 3.5161 32.5099 -0.0000 -0.0000 0.0000 79.5403 -22.1914 62.5317 -24.7035 35.8994 -8.1154 0.0000 0.0000 2.7502 -3.2664 -60.2997 2.8380 7.1250 -0.0000 -0.0000 -16.7754 3.5828 -163.5731
7.4383 15.0389 42.1729 180.1030 -1.0778 176.9120 0.0000 0.0000 0.0000 -29.5369 -19.6496 2.6757 2.3327 9.5271 27.4586 2.2680 8.9088 -32.7386 0.6285 -5.0727 -14.1161 0.0000 0.0000 0.0000 19.9234 7.8947 -4.1969 -2.8120 -10.3843 30.2304 -1.6624 -14.5451 -33.3060 -0.0044 -0.4286 1.1777 2.8894 1.0329 0.8651 -3.2633 1.0390 -5.1331 -5.0805 0.1644 -5.7037 -4.8665 1.1368 -9.0097 -3.0372 1.4513 26.0681 -0.2013 -0.8996 9.7225 0.0000 -0.0000 0.0000 -78.9724 21.1297 30.2831 20.7555 -31.5419 -5.9215 -0.0000 -0.0000 22.1977 -20.6531 -27.6425 9.9196 -7.1250 0.0000 -0.0000 -28.8039 3.3462 31.4344 0.0000 -0.0000 0.0000 79.9042 -22.1938 61.9313 -24.7921 35.9907 -8.1674 0.0000 0.0000 2.4799 -2.9958 -60.3067 2.6030 7.1250 -0.0000 -0.0000 -16.8634 3.6243 -163.4921
7.4382 15.0382 42.1697 180.0130 -1.0243 176.8480 0.0000 0.0000 0.0000 -29.6329 -19.4968 2.7336 2.3264 9.5153 27.4209 2.2551 8.9334 -32.6788 0.8586 -5.9091 -16.5210 0.0000 0.0000 0.0000 19.8224 7.8605 -4.1405 -2.8170 -10.3927 30.2581 -1.6887 -14.3982 -33.3359 -0.0145 -0.7776 2.1371 2.7795 0.9259 0.9341 -3.2075 0.8943 -5.1509 -4.9530 0.0969 -5.7796 -4.3829 1.2422 -8.8453 -3.6751 1.6318 25.9382 -0.4861 -0.8428 9.6538 0.0000 -0.0000 0.0000 -79.4027 21.7078 29.4373 21.0680 -31.9077 -6.0859 -0.0000 -0.0000 22.3039 -19.0876 -28.1207 9.2633 -7.1250 0.0000 -0.0000 -27.9875 3.0352 30.4257 0.0000 -0.0000 0.0000 79.7430 -22.2744 61.9949 -24.9190 36.1211 -8.2421 0.0000 0.0000 2.0832 -3.2612 -60.1825 2.8302 7.1250 -0.0000 -0.0000 -16.7755 3.6941 -163.6089
7.4392 15.0383 42.1678 180.0180 -1.0316 176.7710 0.0000 0.0000 0.0000 -29.6010 -19.3128 2.7791 2.3174 9.4982 27.3664 2.2360 8.9104 -32.5533 1.1148 -6.7077 -18.8523 0.0000 0.0000 0.0000 19.8425 7.8070 -4.0643 -2.8264 -10.4086 30.3105 -1.7227 -14.2922 -33.4458 -0.0122 -0.7142 1.9628 2.8519 0.9660 1.0518 -3.3472 0.9437 -5.1368 -5.1471 0.1122 -5.8251 -3.8660 1.2037 -8.6022 -3.9687 1.5306 25.8336 -0.6847 -0.8659 9.5748 0.0000 -0.0000 0.0000 -79.2621 21.9265 29.1042 21.2192 -32.0833 -6.1659 -0.0000 -0.0000 22.3177 -17.6768 -28.8791 8.7502 -7.1250 0.0000 -0.0000 -27.2102 2.4298 29.6533 0.0000 -0.0000 0.0000 80.1981 -22.4476 61.3095 -25.0408 36.2457 -8.3140 0.0000 0.0000 1.7470 -3.2315 -60.1069 2.8023 7.1250 -0.0000 -0.0000 -16.7845 3.7706 -163.6241
7.4413 15.0391 42.1649 180.0430 -0.9651 176.7430 0.0000 0.0000 0.0000 -29.5630 -19.2216 2.8256 2.3095 9.4829 27.3180 2.2215 9.0173 -32.5350 1.1713 -6.8696 -19.3295 0.0000 0.0000 0.0000 19.8920 7.8615 -4.0092 -2.8353 -10.4235 30.3594 -1.7637 -14.1574 -33.5717 -0.0088 -0.6064 1.6664 2.7553 0.8119 1.0968 -3.1387 0.7440 -5.2146 -4.8626 0.0193 -5.9576 -4.4766 1.3866 -8.2300 -3.7061 1.7524 25.8323 -0.4700 -0.8140 9.4976 -0.0000 -0.0000 0.0000 -80.0935 22.4959 27.8208 21.4126 -32.3068 -6.2690 -0.0000 -0.0000 22.3755 -16.5365 -29.3629 8.2832 -7.1250 0.0000 -0.0000 -26.5956 2.0441 28.9946 -0.0000 -0.0000 0.0000 79.7319 -22.6408 61.5925 -25.1573 36.3643 -8.3830 0.0000 0.0000 1.4278 -3.0358 -60.2531 2.6364 7.1250 -0.0000 -0.0000 -16.8494 3.6676 -163.5212
7.4407 15.0395 42.1601 180.0270 -0.8247 176.7770 0.0000 0.0000 0.0000 -29.5839 -19.2061 2.8373 2.3038 9.4722 27.2839 2.2141 9.1614 -32.5817 1.1970 -6.9420 -19.5436 0.0000 0.0000 0.0000 19.8590 7.9256 -4.0415 -2.8393 -10.4302 30.3815 -1.7754 -14.0934 -33.5868 -0.0158 -0.8123 2.2326 2.7576 0.8002 1.0959 -3.1231 0.7199 -5.3011 -4.8473 0.0003 -6.0515 -4.7706 1.4495 -9.0118 -3.2102 1.7846 26.8848 -0.2629 -0.8532 10.0175 -0.0000 0.0000 0.0000 -80.5254 23.0613 26.9937 21.6613 -32.5922 -6.4025 -0.0000 -0.0000 22.2571 -15.4782 -29.0809 7.6655 -7.1250 0.0000 -0.0000 -26.0935 2.3514 28.1398 -0.0000 0.0000 0.0000 79.7080 -22.8891 61.5266 -25.2322 36.4404 -8.4274 0.0000 0.0000 1.3878 -2.7627 -60.4701 2.4043 7.1250 -0.0000 -0.0000 -16.9402 3.5116 -163.3728
7.4410 15.0367 42.1531 179.9690 -0.6355 176.7810 0.0000 0.0000 0.0000 -29.6679 -19.1885 2.8944 2.2975 9.4600 27.2452 2.2227 9.2406 -32.6816 1.1819 -6.8996 -19.4184 0.0000 0.0000 0.0000 19.8064 8.0421 -4.0171 -2.8383 -10.4285 30.3759 -1.7425 -14.2275 -33.5067 -0.0151 -0.7930 2.1793 2.7423 0.8262 1.0833 -3.1842 0.7426 -5.3401 -4.9048 0.0058 -6.0831 -4.9116 1.5205 -8.8732 -2.7344 1.7420 27.1515 -0.0817 -0.8598 10.0787 0.0000 -0.0000 0.0000 -80.6699 23.5695 26.3598 21.8020 -32.7525 -6.4784 -0.0000 -0.0000 22.4859 -12.6166 -29.7491 6.3376 -7.1250 0.0000 -0.0000 -24.5778 1.8080 26.3729 0.0000 -0.0000 0.0000 79.8073 -23.0632 61.4090 -25.2519 36.4603 -8.4391 0.0000 0.0000 1.4030 -4.9574 -60.3109 4.3092 7.1250 -0.0000 -0.0000 -16.2277 3.2650 -164.0595
7.4425 15.0358 42.1469 179.9340 -0.4992 176.7240 0.0000 0.0000 0.0000 -29.7091 -19.0544 2.9700 2.2884 9.4426 27.1899 2.2209 9.2475 -32.6756 1.1909 -6.9249 -19.4932 0.0000 0.0000 0.0000 19.8349 8.2169 -3.8621 -2.8364 -10.4254 30.3657 -1.7110 -14.4529 -33.5113 -0.0056 -0.4842 1.3305 2.6556 0.8304 1.1165 -3.1912 0.7434 -5.3402 -4.8636 0.0094 -6.1028 -5.3241 1.6570 -9.0389 -2.1452 1.8484 27.5371 0.2026 -0.8173 10.2381 -0.0000 0.0000 0.0000 -80.8270 23.9649 25.5617 22.1956 -33.1974 -6.6926 -0.0000 -0.0000 21.4096 -12.7823 -30.2548 6.5210 -7.1250 0.0000 -0.0000 -24.6231 1.3351 26.6575 -0.0000 0.0000 0.0000 79.7988 -23.2145 62.0226 -25.2584 36.4669 -8.4430 0.0000 -0.0000 -0.4241 -13.2036 -59.1007 11.3824 7.1250 -0.0000 -0.0000 -13.4105 2.6976 -166.8656
